#!OML:ASF H:\Martial Arts Walks\Project 1\Capture day 1\Session 1\male.ASF
:FULLY-SPECIFIED
:DEGREES
1606
root -4.79266 16.5617 5.57753 -251.242 62.2453 -245.748
lowerback 35.641 3.16704 2.1902
upperback 6.58136 5.33111 -4.28284
thorax -10.0992 2.88705 -7.93985
lowerneck -4.0148 9.01549 3.13991
upperneck 4.23344 12.848 -12.2477
head 2.92864 6.21964 -3.60982
rclavicle 5.32743e-014 -3.49861e-014
rhumerus -18.1477 51.2933 -68.1985
rradius 106.185
rwrist 3.9855
rhand 4.01637 -21.2985
rfingers 7.12502
rthumb 29.4313 -48.9872
lclavicle 5.32743e-014 -3.49861e-014
lhumerus -26.6249 10.9239 60.4471
lradius 89.1214
lwrist 38.7553
lhand -30.7252 14.7103
lfingers 7.12502
lthumb -4.01781 44.6522
rfemur -17.5704 -12.5761 -4.56217
rtibia 57.4156
rfoot -22.0234 -27.0768
rtoes 4.93447
lfemur -137.452 26.9813 -39.9238
ltibia 134.64
lfoot -13.1403 -6.69695
ltoes -11.1584
1607
root -4.80419 16.4754 5.58437 -250.184 62.5452 -244.638
lowerback 35.9799 3.35265 1.73752
upperback 6.5487 5.41716 -4.26128
thorax -10.2822 2.93472 -7.73418
lowerneck -4.0317 9.10421 3.25896
upperneck 4.09382 12.9203 -12.0881
head 2.89181 6.26067 -3.57886
rclavicle -4.77083e-015 -1.27222e-014
rhumerus -17.7494 51.2995 -68.2033
rradius 105.993
rwrist 3.41747
rhand 3.79136 -21.7512
rfingers 7.12502
rthumb 29.2165 -49.4776
lclavicle -4.77083e-015 -1.27222e-014
lhumerus -26.3554 10.7198 60.6584
lradius 90.8988
lwrist 39.1404
lhand -30.6227 14.7369
lfingers 7.12502
lthumb -3.91876 44.6807
rfemur -18.141 -13.4208 -4.16512
rtibia 58.6991
rfoot -22.7759 -26.6558
rtoes 4.61041
lfemur -135.646 26.439 -38.9981
ltibia 133.57
lfoot -13.141 -6.59071
ltoes -11.2104
1608
root -4.81283 16.3903 5.58408 -249.189 62.8201 -243.716
lowerback 36.1511 3.4982 1.30231
upperback 6.497 5.44197 -4.29704
thorax -10.427 2.95251 -7.56764
lowerneck -3.95008 9.23236 3.1722
upperneck 3.87374 13.0389 -11.7916
head 2.79563 6.33121 -3.48126
rclavicle 1.35969e-013 -4.45278e-014
rhumerus -17.3661 51.405 -68.2199
rradius 105.843
rwrist 3.15968
rhand 3.80406 -21.6486
rfingers 7.12502
rthumb 29.2286 -49.3728
lclavicle 1.35969e-013 -4.45278e-014
lhumerus -26.1884 10.6609 60.8041
lradius 92.6781
lwrist 39.5698
lhand -30.4001 14.7451
lfingers 7.12502
lthumb -3.7038 44.6927
rfemur -18.7755 -14.2827 -3.82501
rtibia 59.9166
rfoot -23.273 -26.3507
rtoes 3.63917
lfemur -133.894 26.2966 -38.1427
ltibia 132.481
lfoot -13.0049 -6.87233
ltoes -11.6235
1609
root -4.81894 16.3059 5.5761 -248.39 62.8729 -243.112
lowerback 36.1424 3.67967 0.693372
upperback 6.44848 5.43773 -4.4045
thorax -10.5116 2.96423 -7.36323
lowerneck -3.84521 9.31155 3.1423
upperneck 3.48993 13.0743 -11.2824
head 2.91191 6.39108 -3.72107
rclavicle 8.5875e-014 -3.81667e-014
rhumerus -17.0542 51.4532 -68.3508
rradius 105.63
rwrist 3.09039
rhand 3.65932 -21.5775
rfingers 7.12502
rthumb 29.0904 -49.3257
lclavicle 8.5875e-014 -3.81667e-014
lhumerus -26.0414 10.5574 60.954
lradius 94.357
lwrist 40.0648
lhand -30.2098 14.5362
lfingers 7.12502
lthumb -3.52004 44.4868
rfemur -19.4736 -15.1737 -3.78487
rtibia 61.0564
rfoot -23.5072 -26.1469
rtoes 1.80017
lfemur -131.98 26.2978 -37.3865
ltibia 131.375
lfoot -12.6621 -7.13475
ltoes -11.4766
1610
root -4.82392 16.228 5.56285 -247.34 63.2299 -242.193
lowerback 36.1857 3.74235 0.531216
upperback 6.39456 5.44978 -4.45535
thorax -10.5937 2.96973 -7.34487
lowerneck -3.74685 9.39494 2.99275
upperneck 3.25028 13.1428 -11.0294
head 2.78144 6.43465 -3.61084
rclavicle -1.03368e-014 -2.54444e-014
rhumerus -16.8226 51.4225 -68.5324
rradius 105.449
rwrist 3.40606
rhand 3.55592 -21.644
rfingers 7.12502
rthumb 28.9916 -49.4092
lclavicle -1.03368e-014 -2.54444e-014
lhumerus -25.9226 10.398 61.1811
lradius 96.0274
lwrist 40.5069
lhand -30.2247 14.003
lfingers 7.12502
lthumb -3.53443 43.9534
rfemur -20.0581 -15.9466 -3.41801
rtibia 62.0842
rfoot -24.1662 -25.6385
rtoes 1.49146
lfemur -129.899 26.5036 -36.1135
ltibia 130.239
lfoot -12.193 -7.68113
ltoes -11.5392
1611
root -4.83343 16.1516 5.54758 -245.937 63.4501 -241.277
lowerback 35.7716 3.84711 0.221406
upperback 6.30535 5.45038 -4.50432
thorax -10.5583 2.96951 -7.21145
lowerneck -3.66784 9.46637 2.9852
upperneck 3.04023 13.205 -10.926
head 2.69011 6.4737 -3.57718
rclavicle -9.22361e-014 4.13472e-014
rhumerus -16.6797 51.3411 -68.8194
rradius 105.24
rwrist 4.00472
rhand 3.46434 -21.6239
rfingers 7.12502
rthumb 28.9042 -49.4041
lclavicle -9.22361e-014 4.13472e-014
lhumerus -25.7428 10.236 61.4376
lradius 97.5524
lwrist 41.0201
lhand -29.9914 14.072
lfingers 7.12502
lthumb -3.30914 44.0261
rfemur -21.0051 -16.8562 -3.09312
rtibia 63.0884
rfoot -24.764 -25.1406
rtoes 1.21571
lfemur -128.008 26.5715 -35.0281
ltibia 128.975
lfoot -11.339 -8.15718
ltoes -11.0895
1612
root -4.83852 16.078 5.52513 -244.98 63.8796 -240.494
lowerback 35.7106 3.86867 0.127584
upperback 6.21878 5.42833 -4.536
thorax -10.6393 2.95219 -7.1901
lowerneck -3.50369 9.58284 2.89683
upperneck 2.81021 13.3333 -10.8336
head 2.5762 6.54828 -3.53419
rclavicle -3.89618e-014 -2.06736e-014
rhumerus -16.6086 51.461 -69.0869
rradius 105.174
rwrist 4.9008
rhand 3.25734 -21.1888
rfingers 7.12502
rthumb 28.7064 -49.0027
lclavicle -3.89618e-014 -2.06736e-014
lhumerus -25.8105 10.1804 61.6118
lradius 99.0559
lwrist 41.3446
lhand -29.8196 13.942
lfingers 7.12502
lthumb -3.14326 43.8986
rfemur -21.5913 -17.4883 -2.67004
rtibia 63.9625
rfoot -25.2871 -24.6796
rtoes 0.834089
lfemur -125.676 27.0954 -33.5539
ltibia 127.709
lfoot -10.6864 -8.93014
ltoes -11.1857
1613
root -4.84456 16.0069 5.50105 -244.093 64.3598 -239.708
lowerback 35.6721 3.91298 0.104924
upperback 6.17369 5.46849 -4.56018
thorax -10.6712 2.96688 -7.22083
lowerneck -3.3934 9.70046 2.8727
upperneck 2.60893 13.4591 -10.7141
head 2.48466 6.61937 -3.49087
rclavicle -3.18055e-015 4.77083e-014
rhumerus -16.5978 51.4575 -69.469
rradius 105.047
rwrist 5.94345
rhand 3.08644 -20.9354
rfingers 7.12502
rthumb 28.5431 -48.7768
lclavicle -3.18055e-015 4.77083e-014
lhumerus -25.7202 9.99384 61.8692
lradius 100.398
lwrist 41.4948
lhand -29.7863 13.8626
lfingers 7.12502
lthumb -3.11109 43.8197
rfemur -22.1119 -17.9896 -2.21177
rtibia 64.777
rfoot -25.9193 -24.088
rtoes 1.23647
lfemur -123.052 27.6849 -31.8515
ltibia 126.339
lfoot -9.71962 -9.6896
ltoes -10.5657
1614
root -4.85243 15.9379 5.47318 -242.934 64.9865 -238.636
lowerback 35.8067 3.78611 0.47332
upperback 5.97985 5.40283 -4.67653
thorax -10.9153 2.90434 -7.5436
lowerneck -3.19568 9.85103 2.92709
upperneck 2.489 13.6246 -10.5119
head 2.40659 6.71004 -3.43475
rclavicle -5.00937e-014 4.29375e-014
rhumerus -16.9932 51.5217 -70.232
rradius 105.091
rwrist 6.85524
rhand 2.47292 -20.8978
rfingers 7.12502
rthumb 27.9568 -48.8362
lclavicle -5.00937e-014 4.29375e-014
lhumerus -25.8087 9.70594 61.9105
lradius 101.609
lwrist 41.3872
lhand -29.6225 13.7939
lfingers 7.12502
lthumb -2.95285 43.7532
rfemur -22.5629 -18.5647 -1.50873
rtibia 65.4642
rfoot -26.0897 -23.9329
rtoes 0.198927
lfemur -120.311 28.2146 -29.8225
ltibia 124.852
lfoot -8.73212 -10.5812
ltoes -10.0035
1615
root -4.86136 15.8715 5.44253 -241.741 65.7125 -237.364
lowerback 35.9434 3.71038 0.76441
upperback 5.89482 5.41087 -4.56825
thorax -11.0498 2.88544 -7.6002
lowerneck -3.03927 10.007 2.89071
upperneck 2.35061 13.8139 -10.4294
head 2.33519 6.81179 -3.40082
rclavicle 9.54166e-014 -1.27222e-014
rhumerus -17.2343 51.6611 -70.5823
rradius 105.194
rwrist 7.51306
rhand 2.14988 -20.7794
rfingers 7.12502
rthumb 27.6479 -48.7677
lclavicle 9.54166e-014 -1.27222e-014
lhumerus -25.9138 9.60123 62.2513
lradius 102.657
lwrist 41.0143
lhand -29.4581 13.7844
lfingers 7.12502
lthumb -2.79412 43.7458
rfemur -22.8153 -19.0744 -0.689912
rtibia 66.0519
rfoot -25.976 -24.1012
rtoes -1.67542
lfemur -117.304 28.7409 -27.5656
ltibia 123.249
lfoot -7.61677 -11.5056
ltoes -9.68227
1616
root -4.87113 15.8139 5.4106 -240.353 66.5431 -235.848
lowerback 36.0996 3.59725 1.34863
upperback 5.84222 5.48342 -4.5078
thorax -11.1234 2.89269 -7.88922
lowerneck -2.93969 10.0867 2.9667
upperneck 2.20833 13.8886 -10.2906
head 2.26845 6.85513 -3.37134
rclavicle -5.08889e-014 6.04305e-014
rhumerus -17.5674 51.5471 -71.0231
rradius 105.333
rwrist 7.99097
rhand 1.81423 -20.9431
rfingers 7.12502
rthumb 27.3269 -48.9824
lclavicle -5.08889e-014 6.04305e-014
lhumerus -25.7799 9.21695 62.594
lradius 103.557
lwrist 40.584
lhand -29.4516 13.6881
lfingers 7.12502
lthumb -2.78784 43.6496
rfemur -23.0027 -19.4934 0.24878
rtibia 66.544
rfoot -26.161 -23.9093
rtoes -2.22918
lfemur -114.026 29.1431 -25.0208
ltibia 121.485
lfoot -6.51881 -12.4031
ltoes -9.34597
1617
root -4.88185 15.7628 5.37902 -239.042 67.2234 -234.297
lowerback 36.3819 3.53581 1.73123
upperback 5.78209 5.5626 -4.33679
thorax -11.2711 2.90532 -7.96203
lowerneck -2.61574 10.0789 2.83363
upperneck 1.95117 13.8519 -10.1856
head 2.10106 6.85254 -3.33884
rclavicle -8.11041e-014 1.59028e-014
rhumerus -18.0107 51.5145 -71.3207
rradius 105.498
rwrist 8.22288
rhand 1.74431 -21.3861
rfingers 7.12502
rthumb 27.26 -49.4359
lclavicle -8.11041e-014 1.59028e-014
lhumerus -25.7333 8.935 63.1673
lradius 104.288
lwrist 39.9291
lhand -29.2316 13.7944
lfingers 7.12502
lthumb -2.57535 43.7586
rfemur -23.0151 -19.8701 0.983787
rtibia 66.9841
rfoot -26.4844 -23.5738
rtoes -2.32922
lfemur -110.308 29.3442 -22.371
ltibia 119.451
lfoot -4.96344 -13.3605
ltoes -8.09699
